<svg width="42" height="43" viewBox="0 0 42 43" fill="none" xmlns="http://www.w3.org/2000/svg">
<circle cx="21.0998" cy="21.6294" r="20.8506" fill="url(#paint0_radial_1_1044)"/>
<circle cx="20.7528" cy="21.4807" r="20.7019" fill="url(#paint1_radial_1_1044)"/>
<path d="M28.4439 15.2927C28.4439 16.2125 27.6982 16.9582 26.7784 16.9582C25.8586 16.9582 25.1129 16.2125 25.1129 15.2927C25.1129 14.3728 25.8586 13.6272 26.7784 13.6272C27.6982 13.6272 28.4439 14.3728 28.4439 15.2927Z" fill="white"/>
<path fill-rule="evenodd" clip-rule="evenodd" d="M20.6715 26.9513C23.7377 26.9513 26.2232 24.4657 26.2232 21.3996C26.2232 18.3334 23.7377 15.8479 20.6715 15.8479C17.6054 15.8479 15.1198 18.3334 15.1198 21.3996C15.1198 24.4657 17.6054 26.9513 20.6715 26.9513ZM20.6715 24.7306C22.5112 24.7306 24.0026 23.2392 24.0026 21.3996C24.0026 19.5599 22.5112 18.0685 20.6715 18.0685C18.8319 18.0685 17.3405 19.5599 17.3405 21.3996C17.3405 23.2392 18.8319 24.7306 20.6715 24.7306Z" fill="white"/>
<path fill-rule="evenodd" clip-rule="evenodd" d="M9.56812 20.9554C9.56812 17.2243 9.56812 15.3588 10.2942 13.9337C10.9329 12.6801 11.9521 11.661 13.2057 11.0223C14.6307 10.2961 16.4963 10.2961 20.2274 10.2961H21.1157C24.8468 10.2961 26.7123 10.2961 28.1374 11.0223C29.3909 11.661 30.4101 12.6801 31.0488 13.9337C31.7749 15.3588 31.7749 17.2243 31.7749 20.9554V21.8437C31.7749 25.5748 31.7749 27.4403 31.0488 28.8654C30.4101 30.119 29.3909 31.1381 28.1374 31.7769C26.7123 32.503 24.8468 32.503 21.1157 32.503H20.2274C16.4963 32.503 14.6307 32.503 13.2057 31.7769C11.9521 31.1381 10.9329 30.119 10.2942 28.8654C9.56812 27.4403 9.56812 25.5748 9.56812 21.8437V20.9554ZM20.2274 12.5168H21.1157C23.0179 12.5168 24.3109 12.5186 25.3105 12.6002C26.284 12.6798 26.7819 12.8239 27.1292 13.0009C27.9649 13.4267 28.6444 14.1062 29.0702 14.9419C29.2472 15.2892 29.3913 15.7871 29.4709 16.7606C29.5525 17.7601 29.5543 19.0532 29.5543 20.9554V21.8437C29.5543 23.7459 29.5525 25.039 29.4709 26.0385C29.3913 27.0121 29.2472 27.5099 29.0702 27.8573C28.6444 28.693 27.9649 29.3724 27.1292 29.7982C26.7819 29.9752 26.284 30.1194 25.3105 30.1989C24.3109 30.2806 23.0179 30.2823 21.1157 30.2823H20.2274C18.3252 30.2823 17.0321 30.2806 16.0326 30.1989C15.059 30.1194 14.5611 29.9752 14.2138 29.7982C13.3781 29.3724 12.6987 28.693 12.2729 27.8573C12.0959 27.5099 11.9517 27.0121 11.8722 26.0385C11.7905 25.039 11.7888 23.7459 11.7888 21.8437V20.9554C11.7888 19.0532 11.7905 17.7601 11.8722 16.7606C11.9517 15.7871 12.0959 15.2892 12.2729 14.9419C12.6987 14.1062 13.3781 13.4267 14.2138 13.0009C14.5611 12.8239 15.059 12.6798 16.0326 12.6002C17.0321 12.5186 18.3252 12.5168 20.2274 12.5168Z" fill="white"/>
<defs>
<radialGradient id="paint0_radial_1_1044" cx="0" cy="0" r="1" gradientUnits="userSpaceOnUse" gradientTransform="translate(2.94801 41.5665) scale(52.9451)">
<stop offset="0.09" stop-color="#FA8F21"/>
<stop offset="0.78" stop-color="#D82D7E"/>
</radialGradient>
<radialGradient id="paint1_radial_1_1044" cx="0" cy="0" r="1" gradientUnits="userSpaceOnUse" gradientTransform="translate(28.7299 39.9461) scale(46.2599 45.8335)">
<stop offset="0.64" stop-color="#8C3AAA" stop-opacity="0"/>
<stop offset="1" stop-color="#8C3AAA"/>
</radialGradient>
</defs>
</svg>
