<svg width="43" height="43" viewBox="0 0 43 43" fill="none" xmlns="http://www.w3.org/2000/svg">
<circle cx="21.1977" cy="21.6322" r="20.8533" fill="#0077B5"/>
<path fill-rule="evenodd" clip-rule="evenodd" d="M16.3685 12.312C16.3685 13.4861 15.4745 14.4363 14.0765 14.4363C12.7329 14.4363 11.8389 13.4861 11.8666 12.312C11.8389 11.0808 12.7329 10.1583 14.1033 10.1583C15.4745 10.1583 16.3417 11.0808 16.3685 12.312ZM11.979 29.7906V16.1145H16.2293V29.7897H11.979V29.7906Z" fill="white"/>
<path fill-rule="evenodd" clip-rule="evenodd" d="M19.6368 20.4789C19.6368 18.773 19.5806 17.3188 19.5244 16.1161H23.2162L23.4125 17.9897H23.4963C24.0557 17.1225 25.4538 15.8092 27.719 15.8092C30.5151 15.8092 32.6126 17.6551 32.6126 21.6806V29.7922H28.3623V22.2132C28.3623 20.4503 27.7475 19.2485 26.2094 19.2485C25.0345 19.2485 24.3359 20.0595 24.0566 20.842C23.9442 21.1221 23.8889 21.5129 23.8889 21.9054V29.7922H19.6385V20.4789H19.6368Z" fill="white"/>
</svg>
