<svg width="43" height="43" viewBox="0 0 43 43" fill="none" xmlns="http://www.w3.org/2000/svg">
<circle cx="21.4911" cy="21.6322" r="20.8533" fill="#1DA1F2"/>
<path fill-rule="evenodd" clip-rule="evenodd" d="M32.6457 14.4532C31.8253 14.8177 30.9425 15.0631 30.0165 15.1739C30.9618 14.6072 31.6877 13.7102 32.0291 12.6415C31.1455 13.1665 30.1645 13.5466 29.1225 13.7526C28.2873 12.8631 27.0965 12.3068 25.7808 12.3068C23.2528 12.3068 21.203 14.3566 21.203 16.8846C21.203 17.2431 21.2439 17.5926 21.322 17.9281C17.517 17.7377 14.144 15.9147 11.886 13.145C11.4918 13.821 11.2664 14.6072 11.2664 15.4462C11.2664 17.0341 12.0734 18.4353 13.3028 19.2564C12.5517 19.2326 11.8466 19.0266 11.2285 18.6837V18.741C11.2285 20.9596 12.8075 22.8093 14.9004 23.231C14.5167 23.3352 14.112 23.3917 13.6948 23.3917C13.3995 23.3917 13.1124 23.3627 12.8328 23.3091C13.4152 25.1276 15.1064 26.4515 17.1094 26.4887C15.543 27.7159 13.5691 28.4485 11.4241 28.4485C11.0537 28.4485 10.6893 28.4269 10.3315 28.3838C12.3575 29.6824 14.7636 30.441 17.3489 30.441C25.7689 30.441 30.3735 23.4653 30.3735 17.4164C30.3735 17.2178 30.3698 17.0199 30.3601 16.8243C31.2556 16.1773 32.0321 15.371 32.6457 14.4532Z" fill="white"/>
</svg>
